# xmcd
#
# Track frame offsets: 
#        150
#        12549
#        28940
#        43858
#        50987
#        72232
#        82863
#        98227
#        118040
#        125803
#
# Disc length: 1898 seconds
#
# Revision: 0
# Processed by: cddbd v1.4PL0 Copyright (c) Steve Scherf et al.
# Submitted via: ExactAudioCopy v0.95a3
#
DISCID=9107680a
DTITLE=Drive Til Morning - Drive Til Morning
DYEAR=2003
DGENRE=
TTITLE0=Palmtrees Sway
TTITLE1=Orange And Tweed
TTITLE2=By Scenic Highway
TTITLE3=The First Days Of Summer
TTITLE4=The Pipebombs Bursting In Air
TTITLE5=At The Center Of The Universe
TTITLE6=Minutes Turn To Miles
TTITLE7=Stompers
TTITLE8=Like Trees In November
TTITLE9=Bring The Single Digits On
EXTD=
EXTT0=
EXTT1=
EXTT2=
EXTT3=
EXTT4=
EXTT5=
EXTT6=
EXTT7=
EXTT8=
EXTT9=
PLAYORDER=
